<svg width="22" height="23" viewBox="0 0 22 23" fill="none" xmlns="http://www.w3.org/2000/svg">
<path d="M10.8528 8.00715C9.10275 8.00715 7.6919 9.48997 7.6919 11.2976C7.6919 13.1052 9.11632 14.5881 10.8528 14.5881C12.5892 14.5881 14.0136 13.1052 14.0136 11.2976C14.0136 9.48997 12.5892 8.00715 10.8528 8.00715ZM20.3489 11.2976C20.3489 9.92776 20.3489 8.58615 20.281 7.21631C20.2132 5.63463 19.8605 4.22241 18.7481 3.07852C17.6357 1.92051 16.2927 1.55333 14.7733 1.48272C13.4574 1.41211 12.1686 1.41211 10.8528 1.41211C9.53686 1.41211 8.2481 1.41211 6.93221 1.48272C5.41283 1.55333 4.05624 1.92051 2.9574 3.07852C1.845 4.23654 1.49229 5.63463 1.42446 7.21631C1.35663 8.58615 1.35663 9.92776 1.35663 11.2976C1.35663 12.6675 1.35663 14.0091 1.42446 15.3789C1.49229 16.9606 1.845 18.3728 2.9574 19.5167C4.06981 20.6747 5.41283 21.0419 6.93221 21.1125C8.2481 21.1831 9.53686 21.1831 10.8528 21.1831C12.1686 21.1831 13.4574 21.1831 14.7733 21.1125C16.2927 21.0419 17.6493 20.6747 18.7481 19.5167C19.8605 18.3587 20.2132 16.9606 20.281 15.3789C20.3624 14.0232 20.3489 12.6675 20.3489 11.2976ZM10.8528 16.3675C8.15314 16.3675 5.9826 14.1079 5.9826 11.2976C5.9826 8.4873 8.15314 6.22776 10.8528 6.22776C13.5524 6.22776 15.7229 8.4873 15.7229 11.2976C15.7229 14.1079 13.5524 16.3675 10.8528 16.3675ZM15.9264 7.20219C15.3024 7.20219 14.7869 6.67967 14.7869 6.01593C14.7869 5.35219 15.2888 4.82967 15.9264 4.82967C16.564 4.82967 17.0659 5.35219 17.0659 6.01593C17.0694 6.17062 17.0422 6.32439 16.9862 6.46771C16.9302 6.61104 16.8465 6.74086 16.7403 6.84913C16.6363 6.95967 16.5116 7.04679 16.374 7.10509C16.2363 7.1634 16.0886 7.19164 15.94 7.18806L15.9264 7.20219Z" fill="white"/>
</svg>
