<svg width="107" height="56" viewBox="0 0 107 56" fill="none" xmlns="http://www.w3.org/2000/svg">
<path d="M106.276 0L27.2102 52.0966C21.0594 54.6989 15.8944 56 11.715 56C6.98367 56 3.55344 54.344 1.42433 51.0321C0.0837843 48.903 -0.310495 46.2022 0.241496 42.9296C0.793487 39.6571 2.25232 36.1677 4.618 32.4615C6.58939 29.465 9.7042 24.0178 14.199 19.1287C12.6219 21.6521 11.6362 25.7588 11.0053 28.4399C9.82249 33.4866 10.887 37.1929 14.199 39.5586C15.7761 40.6625 17.9446 41.2145 20.7046 41.2145C22.9126 41.2145 25.3965 40.8597 28.1565 40.15L106.276 0Z" fill="white"/>
</svg>
